<?xml version="1.0" encoding="utf-8"?>
<!-- Generator: Adobe Illustrator 24.0.2, SVG Export Plug-In . SVG Version: 6.00 Build 0)  -->
<svg version="1.1" id="Layer_1" xmlns="http://www.w3.org/2000/svg" xmlns:xlink="http://www.w3.org/1999/xlink" x="0px" y="0px"
	 viewBox="0 0 1200 1200" style="enable-background:new 0 0 1200 1200;" xml:space="preserve">
<style type="text/css">
	.st0{fill:#052553;stroke:#FFFFFF;stroke-miterlimit:10;}
	.st1{fill:#FFFFFF;}
</style>
<circle class="st0" cx="645.7" cy="600" r="284.9"/>
<g>
	<polygon class="st1" points="478.2,712.7 478.1,712.8 478.1,712.7 	"/>
	<path class="st1" d="M560.7,640.5c-12.8-5.9-28-1.9-36.3,9.4l-46.2,62.8h58.6c9.4,0,18.3-4.5,23.9-12.1l11.5-15.5
		c3.9-5.3,5.8-11.4,5.8-17.5C578,656.5,571.7,645.6,560.7,640.5z"/>
	<path class="st1" d="M804.3,555.4c-6-13.7-14.1-25.7-24.3-35.9s-22.1-18.3-35.8-24.3c-8.8-3.8-17.9-6.4-27.5-7.8l-0.1,0.1
		c-2-0.3-4-0.5-5.9-0.7h-2.9c-3.2,0-6.5,0.2-9.6,0.4c-15,0.2-29,3.2-42.2,9c-13.7,6-25.6,14.1-35.8,24.3
		c-10.3,10.2-18.3,22.2-24.3,35.9c-0.3,0.9-0.8,1.8-1.1,2.8l-0.2-0.4c0-0.1,0-0.1,0.1-0.2l-34.3-57.5c-5.3-9-15-14.5-25.5-14.5
		h-56.4l82.8,114.5l43.6,58.9c0.3,0.5,0.6,1.1,1,1.6l2.7,3.7c0.5,0.7,1,1.4,1.6,2.1l2.7,3.6c2.3,2.8,4.8,5.5,7.3,8
		c10.2,10.2,22.1,18.3,35.8,24.3c13.6,6,28.4,9,44.1,9c5.6,0,11.1-0.4,16.4-1.2l0.8-0.1c9.6-1.3,18.9-3.9,27.7-7.8
		c7-3,13.6-6.7,19.7-10.9l-39.4-39.5c-1.3,0.9-2.7,1.7-4.1,2.4c-6.3,3.2-13,4.8-20.3,4.8c-7.2,0-14.1-1.6-20.5-4.8
		c-2.9-1.5-5.7-3.2-8.3-5.2l-0.8,0.1c-3-2.3-5.9-5.1-8.5-8.1c-4.8-5.7-8.6-12.3-11.4-19.7c-2.8-7.4-4.2-15.5-4.2-24.3
		c0-8.2,1.4-16,4.2-23.5s6.6-13.9,11.4-19.3c3.7-4.1,7.8-7.6,12.4-10.4l0.1-0.2c1.4-0.9,2.8-1.6,4.3-2.4c6.4-3.2,13.2-4.8,20.5-4.8
		s14,1.6,20.3,4.8s11.8,7.5,16.6,12.9c4.9,5.4,8.6,11.8,11.4,19.3s4.2,15.3,4.2,23.5c0,8.7-1.4,16.8-4.2,24.3
		c-1.7,4.6-3.8,8.8-6.3,12.8l40.8,40.8c8.9-9.5,16-20.5,21.4-32.9c6-13.7,9-28.3,9-43.8S810.3,569,804.3,555.4z"/>
</g>
</svg>
