<?xml version="1.0" encoding="utf-8"?>
<!-- Generator: Adobe Illustrator 24.1.2, SVG Export Plug-In . SVG Version: 6.00 Build 0)  -->
<svg version="1.1" id="Layer_1" xmlns="http://www.w3.org/2000/svg" xmlns:xlink="http://www.w3.org/1999/xlink" x="0px" y="0px"
	 viewBox="0 0 567 109" style="enable-background:new 0 0 567 109;" xml:space="preserve">
<g>
	<g>
		<path d="M10.8,93l22.8-31l20.8,9.5L38.6,93H10.8z M69.8,50.8L101.2,93h-28v-0.2l-31-41.9L11,7.8h27.6l17.2,29l17.4-29h28L100.8,8
			L69.8,50.8z"/>
		<path d="M158.1,60.5l18.4,12.1l-0.2,0.2c-4,6.8-9.3,12.2-16.1,16c-6.8,3.9-14.1,5.8-21.9,5.8c-6.1,0-11.9-1.2-17.2-3.5
			c-5.3-2.3-10-5.5-14-9.5c-4-4-7.1-8.6-9.5-14c-2.3-5.3-3.5-11-3.5-17c0-6,1.2-11.7,3.5-17c2.3-5.3,5.5-10,9.5-14
			c4-4,8.6-7.1,14-9.5c5.3-2.3,11.1-3.5,17.2-3.5c7.8,0,15.1,1.9,21.9,5.8c6.8,3.9,12.1,9.2,16.1,16l0.2,0.2l-18.6,12.1l-0.2-0.2
			c-1.8-4.2-4.5-7.6-7.9-10.2c-3.5-2.6-7.3-3.9-11.5-3.9c-3.1,0-5.9,0.7-8.6,2c-2.7,1.3-5,3.1-6.9,5.3c-1.9,2.2-3.5,4.8-4.6,7.7
			c-1.1,2.9-1.7,6-1.7,9.3c0,3.3,0.6,6.4,1.7,9.2c1.1,2.8,2.7,5.3,4.6,7.4c1.9,2.1,4.2,3.8,6.9,4.9c2.7,1.2,5.5,1.8,8.6,1.8
			c4.2,0,8-1.2,11.5-3.5c3.5-2.3,6.1-5.6,7.9-9.8l0.2-0.3L158.1,60.5z"/>
		<path d="M225.2,42.4c3.8,1.3,7.2,2.5,10.3,3.8c3.1,1.3,5.9,2.9,8.2,4.7c2.3,1.8,4.1,4,5.5,6.6c1.3,2.6,2,5.6,2,9.1v0.2
			c0,8.6-2.9,15.4-8.6,20.3c-5.7,4.9-13.8,7.3-24.1,7.3c-6.5,0-12.8-1.1-19.1-3.4c-6.3-2.2-12.1-5.4-17.6-9.5l-0.2-0.2l0.2-0.2
			l11.6-18.3l0.2,0.2c3.4,3.6,7.3,6.4,11.6,8.3c4.3,1.9,8.9,2.8,13.8,2.8c6.7,0,10.1-2.2,10.1-6.5c0-2-1.1-3.6-3.2-4.6
			c-2.2-1-4.7-2-7.7-2.9c-0.6-0.2-1.1-0.4-1.6-0.4c-0.5-0.1-1.1-0.2-1.6-0.4c-3.4-0.9-6.8-1.9-10.2-3s-6.5-2.6-9.2-4.4
			c-2.7-1.9-5-4.2-6.7-7.1c-1.8-2.9-2.6-6.6-2.6-11.1v-0.3c0-4,0.7-7.6,2.2-10.9c1.5-3.3,3.6-6.1,6.3-8.5c2.7-2.4,6-4.2,9.9-5.5
			c3.9-1.3,8.1-2,12.8-2c5.5,0,11,0.8,16.5,2.5c5.6,1.6,10.7,4.1,15.5,7.2v0.3l-10.4,18.9l-0.2-0.2c-2.6-2.6-5.9-4.7-9.7-6.2
			c-3.9-1.5-8-2.3-12.3-2.3c-0.8,0-1.7,0.1-2.7,0.2c-1,0.1-2,0.4-2.8,0.9c-0.9,0.5-1.6,1.1-2.1,1.8c-0.6,0.7-0.9,1.8-0.9,3.2
			c0,1,0.5,2,1.4,2.8c0.9,0.9,2.1,1.6,3.5,2.4c1.4,0.7,3,1.4,4.8,2.1c1.8,0.7,3.5,1.3,5.2,1.9c0.3,0,0.7,0.1,1.1,0.2
			C224.5,42.2,224.9,42.3,225.2,42.4z"/>
	</g>
	<g>
		<path d="M277.6,27.9l-5.6,9.5h-8.6l10-15.8L263.2,6.2h8.8l6.3,9.4l5.5-9.4h8.6L282.5,22l10.3,15.4h-8.8L277.6,27.9z"/>
		<path d="M307.6,37.8c-7.3,0-12.5-4.9-12.5-12.7c0-7.9,5.1-12.7,12.5-12.7c7.2,0,12.3,4.8,12.3,12.3c0,0.7,0,1.5-0.1,2.2h-17.2
			c0.3,3.2,2.3,4.7,4.7,4.7c2.1,0,3.3-1.1,4-2.4h8.1C318.2,34,313.8,37.8,307.6,37.8z M302.7,22.6h9.5c0-2.7-2.1-4.3-4.7-4.3
			C305,18.4,303.1,19.9,302.7,22.6z"/>
		<path d="M329.7,12.6l5.4,17.7l5.4-17.7h8.1l-8.8,24.8h-9.4l-8.8-24.8H329.7z"/>
		<path d="M362.7,37.8c-7.3,0-12.5-4.9-12.5-12.7c0-7.9,5.1-12.7,12.5-12.7c7.2,0,12.3,4.8,12.3,12.3c0,0.7,0,1.5-0.1,2.2h-17.2
			c0.3,3.2,2.3,4.7,4.7,4.7c2.1,0,3.3-1.1,4-2.4h8.1C373.3,34,368.9,37.8,362.7,37.8z M357.8,22.6h9.5c0-2.7-2.1-4.3-4.7-4.3
			C360.2,18.4,358.3,19.9,357.8,22.6z"/>
		<path d="M379.1,4.6h7.6v32.8h-7.6V4.6z"/>
		<path d="M392.2,4.6h7.6v32.8h-7.6V4.6z"/>
		<path d="M416.5,37.8c-7.3,0-12.8-4.9-12.8-12.7c0-7.9,5.6-12.7,12.9-12.7c7.3,0,12.9,4.9,12.9,12.7
			C429.5,32.9,423.8,37.8,416.5,37.8z M416.5,31.2c2.7,0,5.2-2,5.2-6.2c0-4.2-2.5-6.2-5.1-6.2c-2.8,0-5.1,2-5.1,6.2
			C411.5,29.2,413.8,31.2,416.5,31.2z"/>
		<path d="M279.2,59.2c7.4,0,13,4.2,14.8,10.9h-8.3c-1.3-2.7-3.6-4-6.5-4c-4.7,0-7.9,3.5-7.9,9c0,5.5,3.2,9,7.9,9
			c2.9,0,5.2-1.3,6.5-4h8.3c-1.8,6.7-7.4,10.9-14.8,10.9c-9.2,0-15.7-6.5-15.7-15.8C263.6,65.7,270,59.2,279.2,59.2z"/>
		<path d="M310,91c-7.3,0-12.8-4.9-12.8-12.7c0-7.9,5.6-12.7,12.9-12.7c7.3,0,12.9,4.9,12.9,12.7C322.9,86.1,317.2,91,310,91z
			 M310,84.5c2.7,0,5.2-2,5.2-6.2c0-4.2-2.5-6.2-5.1-6.2c-2.8,0-5.1,2-5.1,6.2C304.9,82.5,307.2,84.5,310,84.5z"/>
		<path d="M344.1,77.2c0-3.4-1.9-5.2-4.8-5.2c-2.9,0-4.7,1.9-4.7,5.2v13.4H327V65.9h7.6v3.3c1.5-2.1,4.2-3.6,7.5-3.6
			c5.7,0,9.5,3.9,9.5,10.6v14.5h-7.5V77.2z"/>
		<path d="M367,91c-6.6,0-11.1-3.7-11.4-8.5h7.5c0.2,1.7,1.7,2.9,3.8,2.9c2,0,3-0.9,3-2c0-4-13.5-1.1-13.5-10.2
			c0-4.2,3.6-7.7,10.1-7.7c6.4,0,9.9,3.6,10.4,8.4h-7c-0.2-1.7-1.5-2.8-3.6-2.8c-1.8,0-2.8,0.7-2.8,1.9c0,4,13.4,1.2,13.5,10.4
			C377,87.8,373.2,91,367,91z"/>
		<path d="M406.1,90.7h-7.6v-3.4c-1.5,2.1-4.2,3.6-7.5,3.6c-5.7,0-9.6-4-9.6-10.6V65.9h7.5v13.4c0,3.4,1.9,5.2,4.7,5.2
			c2.9,0,4.8-1.9,4.8-5.2V65.9h7.6V90.7z"/>
		<path d="M411.6,57.8h7.6v32.8h-7.6V57.8z"/>
		<path d="M425.9,72.2h-3v-6.3h3v-6h7.6v6h5v6.3h-5v9.9c0,1.5,0.6,2.1,2.3,2.1h2.7v6.4h-3.9c-5.1,0-8.7-2.2-8.7-8.6V72.2z"/>
		<path d="M452.1,65.5c3.7,0,6.3,1.7,7.6,3.9v-3.5h7.6v24.8h-7.6v-3.5c-1.4,2.2-4,3.9-7.7,3.9c-6,0-10.9-5-10.9-12.8
			S446,65.5,452.1,65.5z M454.3,72.2c-2.8,0-5.4,2.1-5.4,6.1s2.6,6.2,5.4,6.2c2.9,0,5.4-2.2,5.4-6.1
			C459.7,74.3,457.2,72.2,454.3,72.2z"/>
		<path d="M489.9,77.2c0-3.4-1.9-5.2-4.8-5.2c-2.9,0-4.7,1.9-4.7,5.2v13.4h-7.6V65.9h7.6v3.3c1.5-2.1,4.2-3.6,7.5-3.6
			c5.7,0,9.5,3.9,9.5,10.6v14.5h-7.5V77.2z"/>
		<path d="M513.7,65.5c6.2,0,10.6,3.4,11.9,9.3h-8.1c-0.6-1.7-1.9-2.8-4-2.8c-2.7,0-4.6,2.1-4.6,6.3c0,4.1,1.9,6.3,4.6,6.3
			c2.1,0,3.3-1,4-2.8h8.1c-1.3,5.7-5.7,9.3-11.9,9.3c-7.3,0-12.4-4.9-12.4-12.7C501.2,70.5,506.4,65.5,513.7,65.5z"/>
		<path d="M546.7,65.9h8.2l-15.5,36.5h-8.2l5.7-12.6l-10.1-23.9h8.5l5.7,15.5L546.7,65.9z"/>
	</g>
</g>
</svg>
